<svg width="464" height="60" viewBox="0 0 464 60" fill="none" xmlns="http://www.w3.org/2000/svg">
<path d="M19.92 59.3018C16.1333 59.3018 12.72 58.5018 9.68 56.9018C6.69333 55.2485 4.32 52.9018 2.56 49.8618C0.853332 46.8218 -8.9407e-07 43.2218 -8.9407e-07 39.0618V38.1818C-8.9407e-07 33.9685 0.853332 30.3685 2.56 27.3818C4.32 24.3418 6.69333 22.0218 9.68 20.4218C12.72 18.7685 16.1333 17.9418 19.92 17.9418C23.6533 17.9418 26.8267 18.6352 29.44 20.0218C32.1067 21.4085 34.1867 23.2485 35.68 25.5418C37.2267 27.8352 38.2133 30.2885 38.64 32.9018L32.48 34.1818C32.2133 32.2618 31.5733 30.5018 30.56 28.9018C29.6 27.3018 28.24 26.0218 26.48 25.0618C24.72 24.1018 22.56 23.6218 20 23.6218C17.3867 23.6218 15.04 24.2085 12.96 25.3818C10.9333 26.5552 9.30667 28.2352 8.08 30.4218C6.90667 32.6085 6.32 35.2218 6.32 38.2618V38.9818C6.32 42.0218 6.90667 44.6352 8.08 46.8218C9.30667 49.0085 10.9333 50.6885 12.96 51.8618C15.04 53.0352 17.3867 53.6218 20 53.6218C23.8933 53.6218 26.8533 52.6085 28.88 50.5818C30.96 48.5552 32.24 46.0485 32.72 43.0618L38.96 44.4218C38.3733 46.9818 37.3067 49.4085 35.76 51.7018C34.2133 53.9952 32.1067 55.8352 29.44 57.2218C26.8267 58.6085 23.6533 59.3018 19.92 59.3018ZM61.4125 59.3018C57.4658 59.3018 53.9725 58.4752 50.9325 56.8218C47.9458 55.1685 45.5992 52.8485 43.8925 49.8618C42.2392 46.8218 41.4125 43.2485 41.4125 39.1418V38.1018C41.4125 34.0485 42.2392 30.5018 43.8925 27.4618C45.5992 24.4218 47.9458 22.0752 50.9325 20.4218C53.9725 18.7685 57.4658 17.9418 61.4125 17.9418C65.3592 17.9418 68.8258 18.7685 71.8125 20.4218C74.8525 22.0752 77.1992 24.4218 78.8525 27.4618C80.5592 30.5018 81.4125 34.0485 81.4125 38.1018V39.1418C81.4125 43.2485 80.5592 46.8218 78.8525 49.8618C77.1992 52.8485 74.8525 55.1685 71.8125 56.8218C68.8258 58.4752 65.3592 59.3018 61.4125 59.3018ZM61.4125 53.6218C65.5725 53.6218 68.8792 52.3152 71.3325 49.7018C73.8392 47.0352 75.0925 43.4618 75.0925 38.9818V38.2618C75.0925 33.7818 73.8392 30.2352 71.3325 27.6218C68.8792 24.9552 65.5725 23.6218 61.4125 23.6218C57.3058 23.6218 53.9992 24.9552 51.4925 27.6218C48.9858 30.2352 47.7325 33.7818 47.7325 38.2618V38.9818C47.7325 43.4618 48.9858 47.0352 51.4925 49.7018C53.9992 52.3152 57.3058 53.6218 61.4125 53.6218ZM102.946 59.3018C99.5856 59.3018 96.4923 58.5018 93.6656 56.9018C90.839 55.3018 88.599 52.9818 86.9456 49.9418C85.2923 46.9018 84.4656 43.3018 84.4656 39.1418V38.1018C84.4656 33.9418 85.2923 30.3685 86.9456 27.3818C88.599 24.3418 90.8123 22.0218 93.5856 20.4218C96.4123 18.7685 99.5323 17.9418 102.946 17.9418C105.666 17.9418 107.959 18.3152 109.826 19.0618C111.746 19.7552 113.292 20.6618 114.466 21.7818C115.639 22.8485 116.546 23.9952 117.186 25.2218H118.306V2.18182H124.626V58.1818H118.466V51.7018H117.346C116.279 53.6752 114.626 55.4352 112.386 56.9818C110.146 58.5285 106.999 59.3018 102.946 59.3018ZM104.626 53.7018C108.679 53.7018 111.959 52.4218 114.466 49.8618C117.026 47.2485 118.306 43.6218 118.306 38.9818V38.2618C118.306 33.6218 117.026 30.0218 114.466 27.4618C111.959 24.8485 108.679 23.5418 104.626 23.5418C100.626 23.5418 97.319 24.8485 94.7056 27.4618C92.1456 30.0218 90.8656 33.6218 90.8656 38.2618V38.9818C90.8656 43.6218 92.1456 47.2485 94.7056 49.8618C97.319 52.4218 100.626 53.7018 104.626 53.7018ZM149.39 59.3018C145.443 59.3018 141.977 58.4752 138.99 56.8218C136.003 55.1152 133.683 52.7418 132.03 49.7018C130.377 46.6618 129.55 43.1418 129.55 39.1418V38.1818C129.55 34.1285 130.377 30.5818 132.03 27.5418C133.683 24.5018 135.977 22.1552 138.91 20.5018C141.843 18.7952 145.203 17.9418 148.99 17.9418C152.67 17.9418 155.923 18.7418 158.75 20.3418C161.577 21.8885 163.79 24.1285 165.39 27.0618C166.99 29.9952 167.79 33.4352 167.79 37.3818V40.2618H135.87C136.03 44.4752 137.39 47.7818 139.95 50.1818C142.51 52.5285 145.71 53.7018 149.55 53.7018C152.91 53.7018 155.497 52.9285 157.31 51.3818C159.123 49.8352 160.51 47.9952 161.47 45.8618L166.91 48.5018C166.11 50.1552 164.99 51.8085 163.55 53.4618C162.163 55.1152 160.323 56.5018 158.03 57.6218C155.79 58.7418 152.91 59.3018 149.39 59.3018ZM135.95 35.0618H161.39C161.177 31.4352 159.923 28.6085 157.63 26.5818C155.39 24.5552 152.51 23.5418 148.99 23.5418C145.417 23.5418 142.483 24.5552 140.19 26.5818C137.897 28.6085 136.483 31.4352 135.95 35.0618Z" fill="white"/>
<path d="M171.512 58.1818V3.8147e-06H193.785C197.99 3.8147e-06 201.484 0.662882 204.268 1.98864C207.071 3.29546 209.164 5.08523 210.546 7.35796C211.948 9.63069 212.649 12.2064 212.649 15.0852C212.649 17.4527 212.194 19.4792 211.285 21.1648C210.376 22.8314 209.154 24.1856 207.62 25.2273C206.086 26.2689 204.372 27.017 202.478 27.4716V28.0398C204.543 28.1534 206.522 28.7879 208.416 29.9432C210.329 31.0795 211.891 32.6894 213.103 34.7727C214.315 36.8561 214.921 39.375 214.921 42.3296C214.921 45.3409 214.192 48.0492 212.734 50.4546C211.276 52.8409 209.079 54.7254 206.143 56.108C203.207 57.4905 199.514 58.1818 195.064 58.1818H171.512ZM182.052 49.375H193.387C197.213 49.375 199.969 48.6458 201.654 47.1875C203.359 45.7102 204.211 43.8163 204.211 41.5057C204.211 39.7822 203.785 38.2292 202.933 36.8466C202.081 35.4451 200.868 34.3466 199.296 33.5511C197.725 32.7367 195.85 32.3296 193.671 32.3296H182.052V49.375ZM182.052 24.7443H192.478C194.296 24.7443 195.935 24.4129 197.393 23.75C198.851 23.0682 199.997 22.1117 200.831 20.8807C201.683 19.6307 202.109 18.1534 202.109 16.4489C202.109 14.1951 201.314 12.339 199.723 10.8807C198.151 9.42235 195.812 8.69318 192.706 8.69318H182.052V24.7443ZM229.793 59.0625C227.028 59.0625 224.537 58.5701 222.321 57.5852C220.124 56.5814 218.382 55.1042 217.094 53.1534C215.825 51.2027 215.191 48.7974 215.191 45.9375C215.191 43.4754 215.645 41.4394 216.554 39.8296C217.463 38.2197 218.704 36.9318 220.276 35.9659C221.848 35 223.619 34.2708 225.588 33.7784C227.577 33.2671 229.632 32.8977 231.753 32.6705C234.31 32.4053 236.384 32.1686 237.975 31.9602C239.566 31.733 240.721 31.3921 241.441 30.9375C242.179 30.464 242.548 29.7349 242.548 28.75V28.5796C242.548 26.4394 241.914 24.7822 240.645 23.608C239.376 22.4337 237.548 21.8466 235.162 21.8466C232.643 21.8466 230.645 22.3958 229.168 23.4943C227.709 24.5928 226.725 25.8902 226.213 27.3864L216.611 26.0227C217.369 23.3712 218.619 21.1553 220.361 19.375C222.103 17.5758 224.234 16.2311 226.753 15.3409C229.272 14.4318 232.056 13.9773 235.105 13.9773C237.208 13.9773 239.3 14.2235 241.384 14.7159C243.467 15.2083 245.37 16.0227 247.094 17.1591C248.817 18.2765 250.2 19.8011 251.242 21.733C252.302 23.6648 252.833 26.0795 252.833 28.9773V58.1818H242.946V52.1875H242.605C241.98 53.3996 241.1 54.536 239.963 55.5966C238.846 56.6383 237.435 57.4811 235.73 58.125C234.045 58.75 232.066 59.0625 229.793 59.0625ZM232.463 51.5057C234.528 51.5057 236.317 51.0985 237.833 50.2841C239.348 49.4508 240.512 48.3523 241.327 46.9886C242.16 45.625 242.577 44.1383 242.577 42.5284V37.3864C242.255 37.6515 241.706 37.8977 240.929 38.125C240.172 38.3523 239.319 38.5511 238.372 38.7216C237.425 38.8921 236.488 39.0436 235.56 39.1761C234.632 39.3087 233.827 39.4224 233.145 39.5171C231.611 39.7254 230.238 40.0663 229.026 40.5398C227.814 41.0133 226.857 41.6761 226.156 42.5284C225.456 43.3617 225.105 44.4413 225.105 45.7671C225.105 47.661 225.797 49.0909 227.179 50.0568C228.562 51.0227 230.323 51.5057 232.463 51.5057ZM267.058 32.6136V58.1818H256.773V14.5455H266.603V21.9602H267.114C268.118 19.517 269.719 17.5758 271.916 16.1364C274.131 14.697 276.868 13.9773 280.126 13.9773C283.137 13.9773 285.76 14.6212 287.995 15.9091C290.249 17.197 291.991 19.0625 293.222 21.5057C294.472 23.9489 295.088 26.9129 295.069 30.3977V58.1818H284.785V31.9886C284.785 29.072 284.027 26.7898 282.512 25.142C281.016 23.4943 278.942 22.6705 276.291 22.6705C274.491 22.6705 272.891 23.0682 271.489 23.8636C270.107 24.6402 269.018 25.7671 268.222 27.2443C267.446 28.7216 267.058 30.5114 267.058 32.6136ZM315.317 58.9489C311.889 58.9489 308.82 58.0682 306.112 56.3068C303.404 54.5455 301.264 51.9886 299.692 48.6364C298.12 45.2841 297.334 41.2121 297.334 36.4205C297.334 31.572 298.129 27.4811 299.72 24.1477C301.33 20.7955 303.498 18.2671 306.226 16.5625C308.953 14.839 311.993 13.9773 315.345 13.9773C317.902 13.9773 320.004 14.4129 321.652 15.2841C323.3 16.1364 324.606 17.1686 325.572 18.3807C326.538 19.5739 327.286 20.7008 327.817 21.7614H328.243V3.8147e-06H338.555V58.1818H328.442V51.3068H327.817C327.286 52.3674 326.519 53.4943 325.516 54.6875C324.512 55.8617 323.186 56.8655 321.538 57.6989C319.891 58.5322 317.817 58.9489 315.317 58.9489ZM318.186 50.5114C320.364 50.5114 322.22 49.9242 323.754 48.75C325.288 47.5568 326.453 45.8996 327.248 43.7784C328.044 41.6572 328.442 39.1856 328.442 36.3636C328.442 33.5417 328.044 31.089 327.248 29.0057C326.472 26.9224 325.317 25.303 323.783 24.1477C322.267 22.9924 320.402 22.4148 318.186 22.4148C315.894 22.4148 313.981 23.0114 312.447 24.2045C310.913 25.3977 309.758 27.0455 308.981 29.1477C308.205 31.25 307.817 33.6553 307.817 36.3636C307.817 39.0909 308.205 41.5246 308.981 43.6648C309.777 45.786 310.942 47.4621 312.476 48.6932C314.029 49.9053 315.932 50.5114 318.186 50.5114ZM353.398 32.6136V58.1818H343.114V3.8147e-06H353.171V21.9602H353.682C354.705 19.4981 356.286 17.5568 358.427 16.1364C360.586 14.697 363.332 13.9773 366.665 13.9773C369.696 13.9773 372.338 14.6117 374.591 15.8807C376.845 17.1496 378.588 19.0057 379.819 21.4489C381.069 23.8921 381.694 26.875 381.694 30.3977V58.1818H371.41V31.9886C371.41 29.053 370.652 26.7708 369.137 25.142C367.641 23.4943 365.538 22.6705 362.83 22.6705C361.012 22.6705 359.383 23.0682 357.944 23.8636C356.523 24.6402 355.406 25.7671 354.591 27.2443C353.796 28.7216 353.398 30.5114 353.398 32.6136ZM398.333 59.0625C395.568 59.0625 393.078 58.5701 390.862 57.5852C388.665 56.5814 386.922 55.1042 385.635 53.1534C384.366 51.2027 383.731 48.7974 383.731 45.9375C383.731 43.4754 384.186 41.4394 385.095 39.8296C386.004 38.2197 387.244 36.9318 388.816 35.9659C390.388 35 392.159 34.2708 394.129 33.7784C396.117 33.2671 398.172 32.8977 400.294 32.6705C402.85 32.4053 404.924 32.1686 406.515 31.9602C408.106 31.733 409.261 31.3921 409.981 30.9375C410.72 30.464 411.089 29.7349 411.089 28.75V28.5796C411.089 26.4394 410.455 24.7822 409.186 23.608C407.917 22.4337 406.089 21.8466 403.703 21.8466C401.184 21.8466 399.186 22.3958 397.708 23.4943C396.25 24.5928 395.265 25.8902 394.754 27.3864L385.152 26.0227C385.909 23.3712 387.159 21.1553 388.902 19.375C390.644 17.5758 392.775 16.2311 395.294 15.3409C397.813 14.4318 400.597 13.9773 403.646 13.9773C405.748 13.9773 407.841 14.2235 409.924 14.7159C412.008 15.2083 413.911 16.0227 415.635 17.1591C417.358 18.2765 418.741 19.8011 419.782 21.733C420.843 23.6648 421.373 26.0795 421.373 28.9773V58.1818H411.487V52.1875H411.146C410.521 53.3996 409.64 54.536 408.504 55.5966C407.386 56.6383 405.975 57.4811 404.271 58.125C402.585 58.75 400.606 59.0625 398.333 59.0625ZM401.004 51.5057C403.068 51.5057 404.858 51.0985 406.373 50.2841C407.888 49.4508 409.053 48.3523 409.867 46.9886C410.701 45.625 411.117 44.1383 411.117 42.5284V37.3864C410.796 37.6515 410.246 37.8977 409.47 38.125C408.712 38.3523 407.86 38.5511 406.913 38.7216C405.966 38.8921 405.028 39.0436 404.1 39.1761C403.172 39.3087 402.367 39.4224 401.686 39.5171C400.152 39.7254 398.778 40.0663 397.566 40.5398C396.354 41.0133 395.398 41.6761 394.697 42.5284C393.996 43.3617 393.646 44.4413 393.646 45.7671C393.646 47.661 394.337 49.0909 395.72 50.0568C397.102 51.0227 398.864 51.5057 401.004 51.5057ZM435.598 32.6136V58.1818H425.314V14.5455H435.144V21.9602H435.655C436.659 19.517 438.259 17.5758 440.456 16.1364C442.672 14.697 445.409 13.9773 448.666 13.9773C451.678 13.9773 454.301 14.6212 456.536 15.9091C458.789 17.197 460.532 19.0625 461.763 21.5057C463.013 23.9489 463.628 26.9129 463.61 30.3977V58.1818H453.325V31.9886C453.325 29.072 452.568 26.7898 451.053 25.142C449.557 23.4943 447.483 22.6705 444.831 22.6705C443.032 22.6705 441.432 23.0682 440.03 23.8636C438.647 24.6402 437.558 25.7671 436.763 27.2443C435.986 28.7216 435.598 30.5114 435.598 32.6136Z" fill="#00C896"/>
</svg>
