<svg width="100" height="100" viewBox="0 0 100 100" fill="none" xmlns="http://www.w3.org/2000/svg">
<g clip-path="url(#clip0_23_13)">
<path d="M27.6447 79.12C23.858 79.12 20.4447 78.32 17.4047 76.72C14.418 75.0667 12.0447 72.72 10.2847 69.68C8.57802 66.64 7.72469 63.04 7.72469 58.88V58C7.72469 53.7867 8.57802 50.1867 10.2847 47.2C12.0447 44.16 14.418 41.84 17.4047 40.24C20.4447 38.5867 23.858 37.76 27.6447 37.76C31.378 37.76 34.5514 38.4533 37.1647 39.84C39.8314 41.2267 41.9114 43.0667 43.4047 45.36C44.9514 47.6533 45.938 50.1067 46.3647 52.72L40.2047 54C39.938 52.08 39.298 50.32 38.2847 48.72C37.3247 47.12 35.9647 45.84 34.2047 44.88C32.4447 43.92 30.2847 43.44 27.7247 43.44C25.1114 43.44 22.7647 44.0267 20.6847 45.2C18.658 46.3733 17.0314 48.0533 15.8047 50.24C14.6314 52.4267 14.0447 55.04 14.0447 58.08V58.8C14.0447 61.84 14.6314 64.4533 15.8047 66.64C17.0314 68.8267 18.658 70.5067 20.6847 71.68C22.7647 72.8533 25.1114 73.44 27.7247 73.44C31.618 73.44 34.578 72.4267 36.6047 70.4C38.6847 68.3733 39.9647 65.8667 40.4447 62.88L46.6847 64.24C46.098 66.8 45.0314 69.2267 43.4847 71.52C41.938 73.8133 39.8314 75.6533 37.1647 77.04C34.5514 78.4267 31.378 79.12 27.6447 79.12Z" fill="white"/>
<path d="M50.1558 78V19.8182H72.4286C76.6331 19.8182 80.1274 20.4811 82.9115 21.8068C85.7145 23.1136 87.8073 24.9034 89.1899 27.1761C90.5914 29.4489 91.2922 32.0246 91.2922 34.9034C91.2922 37.2708 90.8376 39.2973 89.9286 40.983C89.0195 42.6496 87.7979 44.0038 86.2638 45.0455C84.7297 46.0871 83.0157 46.8352 81.1217 47.2898V47.858C83.1861 47.9716 85.1653 48.6061 87.0592 49.7614C88.9721 50.8977 90.5346 52.5076 91.7467 54.5909C92.9589 56.6742 93.5649 59.1932 93.5649 62.1477C93.5649 65.1591 92.8357 67.8674 91.3774 70.2727C89.9191 72.6591 87.7221 74.5436 84.7865 75.9261C81.8509 77.3087 78.1577 78 73.707 78H50.1558ZM60.6956 69.1932H72.0308C75.8566 69.1932 78.6123 68.464 80.2979 67.0057C82.0024 65.5284 82.8547 63.6345 82.8547 61.3239C82.8547 59.6004 82.4286 58.0473 81.5763 56.6648C80.724 55.2633 79.5119 54.1648 77.9399 53.3693C76.3679 52.5549 74.4929 52.1477 72.3149 52.1477H60.6956V69.1932ZM60.6956 44.5625H71.1217C72.9399 44.5625 74.5782 44.2311 76.0365 43.5682C77.4948 42.8864 78.6407 41.9299 79.474 40.6989C80.3263 39.4489 80.7524 37.9716 80.7524 36.267C80.7524 34.0133 79.957 32.1572 78.3661 30.6989C76.7941 29.2405 74.4551 28.5114 71.349 28.5114H60.6956V44.5625Z" fill="#00C896"/>
</g>
<defs>
<clipPath id="clip0_23_13">
<rect width="100" height="100" rx="24" fill="white"/>
</clipPath>
</defs>
</svg>
